HIERARCHY
ROOT hip
{
  OFFSET 0 0 0
  CHANNELS 6 Xposition Yposition Zposition Zrotation Yrotation Xrotation
  JOINT abdomen
  {
    OFFSET 0 20.6881 -0.73152
    CHANNELS 3 Zrotation Xrotation Yrotation
    JOINT chest
    {
      OFFSET 0 11.7043 -0.48768
      CHANNELS 3 Zrotation Xrotation Yrotation
      JOINT neck
      {
        OFFSET 0 22.1894 -2.19456
        CHANNELS 3 Zrotation Xrotation Yrotation
        JOINT head
        {
          OFFSET -0.24384 7.07133 1.2192
          CHANNELS 3 Zrotation Xrotation Yrotation
          JOINT leftEye
          {
            OFFSET 4.14528 8.04674 8.04672
            CHANNELS 3 Zrotation Xrotation Yrotation
            End Site
            {
              OFFSET 1 0 0
            }
          }
          JOINT rightEye
          {
            OFFSET -3.6576 8.04674 8.04672
            CHANNELS 3 Zrotation Xrotation Yrotation
            End Site
            {
              OFFSET 1 0 0
            }
          }
        }
      }
      JOINT rCollar
      {
        OFFSET -2.68224 19.2634 -4.8768
        CHANNELS 3 Zrotation Xrotation Yrotation
        JOINT rShldr
        {
          OFFSET -8.77824 -1.95073 1.46304
          CHANNELS 3 Zrotation Xrotation Yrotation
          JOINT rForeArm
          {
            OFFSET -28.1742 -1.7115 0.48768
            CHANNELS 3 Zrotation Xrotation Yrotation
            JOINT rHand
            {
              OFFSET -22.5879 0.773209 7.07136
              CHANNELS 3 Zrotation Xrotation Yrotation
              JOINT rThumb1
              {
                OFFSET -1.2192 -0.487915 3.41376
                CHANNELS 3 Zrotation Xrotation Yrotation
                JOINT rThumb2
                {
                  OFFSET -3.37035 -0.52449 3.41376
                  CHANNELS 3 Zrotation Xrotation Yrotation
                  End Site
                  {
                    OFFSET -1.78271 -1.18214 1.43049
                  }
                }
              }
              JOINT rIndex1
              {
                OFFSET -7.75947 0.938293 5.60832
                CHANNELS 3 Zrotation Xrotation Yrotation
                JOINT rIndex2
                {
                  OFFSET -2.54057 -0.884171 1.56538
                  CHANNELS 3 Zrotation Xrotation Yrotation
                  End Site
                  {
                    OFFSET -1.62519 -0.234802 1.16502
                  }
                }
              }
              JOINT rMid1
              {
                OFFSET -8.24714 1.18213 3.41376
                CHANNELS 3 Zrotation Xrotation Yrotation
                JOINT rMid2
                {
                  OFFSET -3.10165 -0.590103 1.0647
                  CHANNELS 3 Zrotation Xrotation Yrotation
                  End Site
                  {
                    OFFSET -2.48547 -0.328903 0.83742
                  }
                }
              }
              JOINT rRing1
              {
                OFFSET -8.82822 0.546677 1.51678
                CHANNELS 3 Zrotation Xrotation Yrotation
                JOINT rRing2
                {
                  OFFSET -2.60934 -0.819778 -0.0198488
                  CHANNELS 3 Zrotation Xrotation Yrotation
                  End Site
                  {
                    OFFSET -2.33842 -0.294052 0.168128
                  }
                }
              }
              JOINT rPinky1
              {
                OFFSET -8.27202 -0.0477905 -0.4584
                CHANNELS 3 Zrotation Xrotation Yrotation
                JOINT rPinky2
                {
                  OFFSET -1.82734 -0.647385 -0.700984
                  CHANNELS 3 Zrotation Xrotation Yrotation
                  End Site
                  {
                    OFFSET -1.69225 -0.51767 -0.607171
                  }
                }
              }
            }
          }
        }
      }
      JOINT lCollar
      {
        OFFSET 2.68224 19.2634 -4.8768
        CHANNELS 3 Zrotation Xrotation Yrotation
        JOINT lShldr
        {
          OFFSET 8.77824 -1.95073 1.46304
          CHANNELS 3 Zrotation Xrotation Yrotation
          JOINT lForeArm
          {
            OFFSET 28.1742 -1.7115 0.48768
            CHANNELS 3 Zrotation Xrotation Yrotation
            JOINT lHand
            {
              OFFSET 22.5879 0.773209 7.07136
              CHANNELS 3 Zrotation Xrotation Yrotation
              JOINT lThumb1
              {
                OFFSET 1.2192 -0.487915 3.41376
                CHANNELS 3 Zrotation Xrotation Yrotation
                JOINT lThumb2
                {
                  OFFSET 3.37035 -0.52449 3.41376
                  CHANNELS 3 Zrotation Xrotation Yrotation
                  End Site
                  {
                    OFFSET 1.78271 -1.18214 1.43049
                  }
                }
              }
              JOINT lIndex1
              {
                OFFSET 7.75947 0.938293 5.60832
                CHANNELS 3 Zrotation Xrotation Yrotation
                JOINT lIndex2
                {
                  OFFSET 2.54057 -0.884171 1.56538
                  CHANNELS 3 Zrotation Xrotation Yrotation
                  End Site
                  {
                    OFFSET 1.62519 -0.234802 1.16502
                  }
                }
              }
              JOINT lMid1
              {
                OFFSET 8.24714 1.18213 3.41376
                CHANNELS 3 Zrotation Xrotation Yrotation
                JOINT lMid2
                {
                  OFFSET 3.10165 -0.590103 1.0647
                  CHANNELS 3 Zrotation Xrotation Yrotation
                  End Site
                  {
                    OFFSET 2.48547 -0.328903 0.83742
                  }
                }
              }
              JOINT lRing1
              {
                OFFSET 8.82822 0.546677 1.51678
                CHANNELS 3 Zrotation Xrotation Yrotation
                JOINT lRing2
                {
                  OFFSET 2.60934 -0.819778 -0.0198488
                  CHANNELS 3 Zrotation Xrotation Yrotation
                  End Site
                  {
                    OFFSET 2.33842 -0.294052 0.168128
                  }
                }
              }
              JOINT lPinky1
              {
                OFFSET 8.27202 -0.0477905 -0.4584
                CHANNELS 3 Zrotation Xrotation Yrotation
                JOINT lPinky2
                {
                  OFFSET 1.82734 -0.647385 -0.700984
                  CHANNELS 3 Zrotation Xrotation Yrotation
                  End Site
                  {
                    OFFSET 1.69225 -0.51767 -0.607171
                  }
                }
              }
            }
          }
        }
      }
    }
  }
  JOINT rButtock
  {
    OFFSET -8.77824 4.35084 1.2192
    CHANNELS 3 Zrotation Xrotation Yrotation
    JOINT rThigh
    {
      OFFSET 0 -1.70687 -2.19456
      CHANNELS 3 Zrotation Xrotation Yrotation
      JOINT rShin
      {
        OFFSET 0 -36.8199 0.73152
        CHANNELS 3 Zrotation Xrotation Yrotation
        JOINT rFoot
        {
          OFFSET 0.73152 -45.1104 -5.12064
          CHANNELS 3 Zrotation Xrotation Yrotation
          End Site
          {
            OFFSET -1.1221 -3.69964 12.103
          }
        }
      }
    }
  }
  JOINT lButtock
  {
    OFFSET 8.77824 4.35084 1.2192
    CHANNELS 3 Zrotation Xrotation Yrotation
    JOINT lThigh
    {
      OFFSET 0 -1.70687 -2.19456
      CHANNELS 3 Zrotation Xrotation Yrotation
      JOINT lShin
      {
        OFFSET 0 -36.8199 0.73152
        CHANNELS 3 Zrotation Xrotation Yrotation
        JOINT lFoot
        {
          OFFSET -0.73152 -45.1104 -5.12064
          CHANNELS 3 Zrotation Xrotation Yrotation
          End Site
          {
            OFFSET 1.1221 -3.69964 12.103
          }
        }
      }
    }
  }
}
MOTION
Frames:	5
Frame Time:	0.03333
0.0 0.0 0.0 0.0 0.0 0.0 0.0 0.0 0.0 0.0 0.0 0.0 0.0 0.0 0.0 0.0 0.0 0.0 0.0 0.0 0.0 0.0 0.0 0.0 0.0 0.0 0.0 0.0 0.0 0.0 0.0 0.0 0.0 0.0 0.0 0.0 0.0 0.0 0.0 0.0 0.0 0.0 0.0 0.0 0.0 0.0 0.0 0.0 0.0 0.0 0.0 0.0 0.0 0.0 0.0 0.0 0.0 0.0 0.0 0.0 0.0 0.0 0.0 0.0 0.0 0.0 0.0 0.0 0.0 0.0 0.0 0.0 0.0 0.0 0.0 0.0 0.0 0.0 0.0 0.0 0.0 0.0 0.0 0.0 0.0 0.0 0.0 0.0 0.0 0.0 0.0 0.0 0.0 0.0 0.0 0.0 0.0 0.0 0.0 0.0 0.0 0.0 0.0 0.0 0.0 0.0 0.0 0.0 0.0 0.0 0.0 0.0 0.0 0.0 0.0 0.0 0.0 0.0 0.0 0.0 0.0 0.0 0.0 0.0 0.0 0.0 0.0 0.0 0.0 0.0 0.0 0.0
1.1579000000000002 26.169900000000002 0.3655 -1.840204 26.910391 -2.923514 -3.939448 5.134847 -86.597092 13.035113 11.452703 -105.939424 1.152896 -27.619541 -79.413354 -66.300793 -10.345504 -51.001952 4.524763 3.409257 73.981213 -58.783281 -20.154677 35.021825 81.820154 -41.036362 -159.029128 151.085395 9.370241 22.64143 115.272364 64.811158 -119.055071 -8.06418 -65.304536 43.191484 49.152946 73.941645 27.696299 11.142254 13.590838 106.330391 124.831684 6.946718 106.531009 166.96479 74.011203 10.432379 107.720916 40.116132 89.393964 -107.295359 70.195026 -36.967195 48.000005 76.696503 96.597911 -95.78908 73.041134 -87.737494 -123.542416 -39.072375 -29.901043 172.051382 -0.974034 7.676471 86.925239 -27.466215 -174.132682 159.393217 1.437329 173.976884 171.639412 -27.108054 92.640449 -57.846729 43.998737 145.768846 -10.608138 -14.200664 159.109671 -91.54961 46.400904 1.098623 -149.123125 37.217034 94.467137 -176.706284 -37.967385 22.625867 -119.217497 -46.932332 102.999388 12.929385 -60.565989 53.356171 165.281098 -32.61335 -161.563873 82.43324 -10.230668 84.048698 -82.69437 -28.698581 -20.564015 155.590687 41.342825 -11.079171 -47.938703 4.292819 -74.984226 19.753036 48.205941 -0.0 -7.226868 2.000929 -141.486553 23.751869 71.574416 2.081764 -100.25708 0.146181 104.279783 -153.027616 -70.53671 -180.0 -3.796736 3.555348 67.508493 -32.56192 -69.939151 93.375332
0.7749 52.0774 0.1361 -142.412601 -84.034511 144.685128 4.058392 0.987648 91.271594 7.335798 4.704283 -78.996525 23.856944 2.561808 99.955744 -46.844099 27.896388 -88.881689 166.027614 5.592678 -43.464197 -41.318188 -20.881768 52.091069 -22.667355 -53.643654 -52.876642 39.026675 -6.13317 -46.327589 -137.955185 -55.923075 101.346455 -74.404818 -1.359709 172.017308 -155.029415 66.675049 -103.211217 178.664512 -7.690031 67.398736 -21.508307 -35.239725 167.571129 83.863345 30.340412 63.714857 155.518553 64.09346 -83.132861 -119.265514 -42.522859 -165.264049 87.989202 -19.605843 -90.982314 -165.079905 52.602002 101.840821 -90.896252 45.325745 -145.212228 52.669969 -7.207217 -44.794683 11.600791 16.563833 -41.759594 52.61872 48.945 -121.096978 53.725705 38.043932 84.00092 23.622798 -62.153437 37.559617 -11.374647 3.312968 -20.269835 69.7274 26.191779 31.895862 108.662074 -37.976705 98.940672 20.041112 -40.804208 165.192007 88.394959 55.6851 -63.630942 87.949716 14.311625 -67.645279 -84.019318 -20.230195 68.906971 157.842587 -59.572798 -63.59228 45.886745 -86.668354 151.5414 -15.900108 -21.021488 -133.865812 -36.229849 16.141404 -66.57772 37.132904 16.259573 88.407509 17.794278 9.10679 11.382507 40.657531 -11.990202 -65.542633 18.329797 27.274632 -180.0 11.341406 39.685466 162.562847 -7.336475 23.308738 143.136247 22.9785 39.758771 -86.304213
0.0986 71.6532 0.1431 -160.035503 -70.567789 163.177751 7.578262 8.496373 137.997742 4.087788 9.408581 -108.024954 14.178088 3.793593 -38.096521 19.784139 -22.176273 33.731662 63.61216 -10.267008 -16.48484 52.598323 0.760072 1.537877 32.972895 41.553662 -18.098761 -111.262789 24.693782 143.755945 92.975442 -27.690665 -105.199093 -72.906443 44.850918 54.442568 -3.255482 77.683196 26.351193 -73.827306 40.966236 25.458413 -95.49977 7.227654 131.255925 157.883028 -23.051227 30.217598 0.198715 -6.676667 -61.231238 -160.911225 0.181308 111.165546 -66.496573 -16.835031 -136.084633 144.250346 -30.41277 65.241194 -56.792662 28.960749 56.943087 35.546272 0.199118 20.897503 178.312109 -52.62884 -126.578062 94.248518 -64.021246 87.498738 173.017513 -29.391833 74.503807 38.807954 54.703966 -8.855363 62.603422 54.422192 -47.946996 41.349807 -0.951545 55.262862 9.640908 -0.824187 81.28818 -9.219631 22.378225 -111.949921 13.749735 -43.819341 -17.471355 -109.621096 80.678814 79.186988 -172.822205 21.342816 59.385805 -41.654261 -29.235676 177.79446 -102.793924 -73.004349 -39.11274 -108.388568 -30.501325 -139.025734 -24.390056 8.274603 -48.626558 33.024762 -13.042055 9.058325 -37.198812 38.785654 -73.475922 -40.259213 71.786603 132.859975 14.016705 -15.099636 -14.292111 17.526094 -10.664894 79.901515 41.51277 41.392346 115.687228 63.109196 40.21886 -152.077499
0.1934 70.89649999999999 1.0473 -163.551878 -63.261799 164.189548 5.507479 17.675009 123.703959 -6.521056 10.532769 -98.876259 -2.645138 17.985366 -82.852729 37.04848 23.2456 81.657251 25.061289 -3.690333 -16.494849 32.310832 9.969617 33.513325 15.408553 36.867529 2.759078 41.633705 5.266383 14.083661 25.341567 -16.565333 117.277734 -15.870224 -15.902114 -2.670882 14.492311 33.586892 2.818484 -127.083075 73.160826 60.592662 -81.175461 77.293445 127.768014 46.272653 -54.609258 2.281321 38.534347 56.983623 -48.705634 -21.866306 5.276743 -26.150322 -119.134801 -9.551848 -151.749938 -93.365093 -16.611228 141.082138 159.885324 6.935024 165.313548 0.590345 -60.977381 77.291674 -41.260835 -83.841873 2.738365 151.61786 -84.993008 -158.442588 68.084382 4.657391 139.230203 -22.250071 -35.944809 0.004288 175.855705 -80.060927 -106.816954 -0.62169 -75.104449 161.902511 85.008911 73.141858 -112.551417 10.816519 23.298091 71.972302 -78.774605 -61.997219 -73.66877 12.656053 -14.768279 5.84816 -116.494268 56.749188 100.089522 -117.928807 -43.330288 -173.465694 -57.40649 -34.949605 -56.287123 -157.300985 20.848975 -157.592371 25.082792 -32.240037 -0.0 -39.249024 -10.110887 -99.877636 -69.677891 -18.66309 -105.537047 -114.014085 -0.816272 -177.539753 -0.239929 8.711012 1.583808 64.360089 -40.884849 180.0 72.291587 -23.179858 167.245581 -8.334298 26.916818 92.056861
